<mxfile host="app.diagrams.net" modified="2024-04-19T07:08:06.883Z" agent="Mozilla/5.0 (Windows NT 10.0; Win64; x64) AppleWebKit/537.36 (KHTML, like Gecko) Chrome/124.0.0.0 Safari/537.36" version="24.2.5" etag="-31sJhU2RS7f9CfyFFF-" type="github">
  <diagram name="Strona-1" id="APzqXFuSCjvbOxQdWy4o">
    <mxGraphModel>
      <root>
        <mxCell id="0" />
        <mxCell id="1" parent="0" />
      </root>
    </mxGraphModel>
  </diagram>
</mxfile>
